<?xml version="1.0" encoding="UTF-8"?>
<svg version="1.1" xmlns="http://www.w3.org/2000/svg" width="500" height="500">
<path d="M0 0 C1.17175781 0.39058594 2.34351563 0.78117187 3.55078125 1.18359375 C11.31133577 3.97662022 18.44294601 7.753314 25.67578125 11.671875 C35.32544672 16.89724766 45.2143064 21.66806577 55.125 26.375 C56.17300781 26.87592163 56.17300781 26.87592163 57.2421875 27.38696289 C68.71960134 32.79063387 78.55332798 34.15160773 91 31 C101.23331558 27.25310774 108.45195703 21.42162188 113.09765625 11.4921875 C114.57125891 7.4222373 115.61641719 3.2261057 116.60620117 -0.98461914 C117.0143451 -2.67108445 117.50121595 -4.33808509 118 -6 C120.52053595 -7.26026798 121.8542098 -6.91874445 124.625 -6.5625 C125.44226563 -6.46066406 126.25953125 -6.35882813 127.1015625 -6.25390625 C127.72804688 -6.17011719 128.35453125 -6.08632812 129 -6 C128.21994985 17.48219933 123.92253956 42.52088366 108 61 C107.34 61 106.68 61 106 61 C105.73832031 61.58394531 105.47664062 62.16789062 105.20703125 62.76953125 C97.45219831 77.09965943 76.91238996 86.51716869 62.015625 91.3515625 C33.53198447 99.70436004 4.34286698 94.90683586 -23 85 C-18.92280521 95.94005061 -12.61246272 103.00673671 -2 108 C5.64018067 110.99837754 13.40650896 113.15385131 21.375 115.0625 C29.91090214 117.11385029 37.84602023 119.4166728 44 126 C48.16798089 133.47769295 48.55731915 140.57750283 48.45410156 148.97705078 C48.45468567 150.23672165 48.45526978 151.49639252 48.45587158 152.79423523 C48.45701006 156.21732184 48.43364348 159.63983736 48.40557575 163.0627923 C48.38041575 166.65152171 48.37820869 170.24026704 48.37347412 173.82907104 C48.36108689 180.61102077 48.32832363 187.39270978 48.28807616 194.17454517 C48.2348239 203.34866159 48.21337856 212.52285031 48.19006729 221.69708252 C48.1525585 236.13158329 48.07284003 250.56553411 48 265 C18.96 265 -10.08 265 -40 265 C-40.33 203.29 -40.66 141.58 -41 78 C-61.0761941 67.96068034 -61.0761941 67.96068034 -82 66 C-86.55457948 68.15743239 -88.80397958 70.49237913 -91 75 C-92.61098504 79.83295513 -92.56972226 84.10784363 -90.625 88.8125 C-89.20754387 91.9983273 -89.20754387 91.9983273 -87 94 C-87.11320303 97.28288776 -88.28284863 98.30354487 -90.5625 100.75 C-91.366875 101.4925 -92.17125 102.235 -93 103 C-103.30049636 99.42418002 -110.46853199 88.40134454 -115.54296875 79.203125 C-123.05429813 63.60775491 -122.08844266 48.17941069 -117.0390625 31.90234375 C-111.68164912 17.48292263 -100.58336015 4.97096994 -86.75 -1.8125 C-58.10395702 -13.70719313 -28.53960326 -9.58083549 0 0 Z " fill="#FBFBFB" transform="translate(246,124)"/>
<path d="M0 0 C0.66 0.33 1.32 0.66 2 1 C-2.29 5.29 -6.58 9.58 -11 14 C-11.66 13.67 -12.32 13.34 -13 13 C-8.96476648 8.18876004 -4.95532767 3.86757281 0 0 Z " fill="#B3B3B3" transform="translate(151,127)"/>
</svg>
